<?xml version="1.0" encoding="UTF-8" standalone="no"?>
<!DOCTYPE svg PUBLIC "-//W3C//DTD SVG 1.1//EN"
 "http://www.w3.org/Graphics/SVG/1.1/DTD/svg11.dtd">
<!-- Generated by graphviz version 9.0.0 (20230911.1827)
 -->
<!-- Pages: 1 -->
<svg width="654pt" height="332pt"
 viewBox="0.00 0.00 653.75 332.00" xmlns="http://www.w3.org/2000/svg" xmlns:xlink="http://www.w3.org/1999/xlink">
<g id="graph0" class="graph" transform="scale(1 1) rotate(0) translate(4 328)">
<polygon fill="white" stroke="none" points="-4,4 -4,-328 649.75,-328 649.75,4 -4,4"/>
<!-- [root] netapp&#45;ontap_volume_resource.volume1 (expand) -->
<g id="node1" class="node">
<title>[root] netapp&#45;ontap_volume_resource.volume1 (expand)</title>
<polygon fill="none" stroke="black" points="283,-180 0,-180 0,-144 283,-144 283,-180"/>
<text text-anchor="middle" x="141.5" y="-156.95" font-family="Times,serif" font-size="14.00">netapp&#45;ontap_volume_resource.volume1</text>
</g>
<!-- [root] provider[&quot;registry.terraform.io/netapp/netapp&#45;ontap&quot;] -->
<g id="node3" class="node">
<title>[root] provider[&quot;registry.terraform.io/netapp/netapp&#45;ontap&quot;]</title>
<polygon fill="none" stroke="black" points="307.5,-108 11.22,-90 307.5,-72 603.78,-90 307.5,-108"/>
<text text-anchor="middle" x="307.5" y="-84.95" font-family="Times,serif" font-size="14.00">provider[&quot;registry.terraform.io/netapp/netapp&#45;ontap&quot;]</text>
</g>
<!-- [root] netapp&#45;ontap_volume_resource.volume1 (expand)&#45;&gt;[root] provider[&quot;registry.terraform.io/netapp/netapp&#45;ontap&quot;] -->
<g id="edge1" class="edge">
<title>[root] netapp&#45;ontap_volume_resource.volume1 (expand)&#45;&gt;[root] provider[&quot;registry.terraform.io/netapp/netapp&#45;ontap&quot;]</title>
<path fill="none" stroke="black" d="M182.96,-143.52C206.63,-133.53 236.38,-120.99 260.87,-110.66"/>
<polygon fill="black" stroke="black" points="262.11,-113.94 269.96,-106.83 259.39,-107.49 262.11,-113.94"/>
</g>
<!-- [root] netapp&#45;ontap_volume_snapshot_resource.snapshot1 (expand) -->
<g id="node2" class="node">
<title>[root] netapp&#45;ontap_volume_snapshot_resource.snapshot1 (expand)</title>
<polygon fill="none" stroke="black" points="645.75,-180 301.25,-180 301.25,-144 645.75,-144 645.75,-180"/>
<text text-anchor="middle" x="473.5" y="-156.95" font-family="Times,serif" font-size="14.00">netapp&#45;ontap_volume_snapshot_resource.snapshot1</text>
</g>
<!-- [root] netapp&#45;ontap_volume_snapshot_resource.snapshot1 (expand)&#45;&gt;[root] provider[&quot;registry.terraform.io/netapp/netapp&#45;ontap&quot;] -->
<g id="edge2" class="edge">
<title>[root] netapp&#45;ontap_volume_snapshot_resource.snapshot1 (expand)&#45;&gt;[root] provider[&quot;registry.terraform.io/netapp/netapp&#45;ontap&quot;]</title>
<path fill="none" stroke="black" d="M432.04,-143.52C408.37,-133.53 378.62,-120.99 354.13,-110.66"/>
<polygon fill="black" stroke="black" points="355.61,-107.49 345.04,-106.83 352.89,-113.94 355.61,-107.49"/>
</g>
<!-- [root] var.password -->
<g id="node4" class="node">
<title>[root] var.password</title>
<polygon fill="none" stroke="black" points="239.12,-36 157.88,-36 157.88,0 245.12,0 245.12,-30 239.12,-36"/>
<polyline fill="none" stroke="black" points="239.12,-36 239.12,-30"/>
<polyline fill="none" stroke="black" points="245.12,-30 239.12,-30"/>
<text text-anchor="middle" x="201.5" y="-12.95" font-family="Times,serif" font-size="14.00">var.password</text>
</g>
<!-- [root] provider[&quot;registry.terraform.io/netapp/netapp&#45;ontap&quot;]&#45;&gt;[root] var.password -->
<g id="edge5" class="edge">
<title>[root] provider[&quot;registry.terraform.io/netapp/netapp&#45;ontap&quot;]&#45;&gt;[root] var.password</title>
<path fill="none" stroke="black" d="M283.45,-73.12C269.69,-64.03 252.17,-52.46 236.87,-42.36"/>
<polygon fill="black" stroke="black" points="239.22,-39.72 228.95,-37.13 235.36,-45.56 239.22,-39.72"/>
</g>
<!-- [root] var.username -->
<g id="node5" class="node">
<title>[root] var.username</title>
<polygon fill="none" stroke="black" points="345.88,-36 263.12,-36 263.12,0 351.88,0 351.88,-30 345.88,-36"/>
<polyline fill="none" stroke="black" points="345.88,-36 345.88,-30"/>
<polyline fill="none" stroke="black" points="351.88,-30 345.88,-30"/>
<text text-anchor="middle" x="307.5" y="-12.95" font-family="Times,serif" font-size="14.00">var.username</text>
</g>
<!-- [root] provider[&quot;registry.terraform.io/netapp/netapp&#45;ontap&quot;]&#45;&gt;[root] var.username -->
<g id="edge6" class="edge">
<title>[root] provider[&quot;registry.terraform.io/netapp/netapp&#45;ontap&quot;]&#45;&gt;[root] var.username</title>
<path fill="none" stroke="black" d="M307.5,-71.7C307.5,-64.41 307.5,-55.73 307.5,-47.54"/>
<polygon fill="black" stroke="black" points="311,-47.62 307.5,-37.62 304,-47.62 311,-47.62"/>
</g>
<!-- [root] var.validate_certs -->
<g id="node6" class="node">
<title>[root] var.validate_certs</title>
<polygon fill="none" stroke="black" points="475.12,-36 369.88,-36 369.88,0 481.12,0 481.12,-30 475.12,-36"/>
<polyline fill="none" stroke="black" points="475.12,-36 475.12,-30"/>
<polyline fill="none" stroke="black" points="481.12,-30 475.12,-30"/>
<text text-anchor="middle" x="425.5" y="-12.95" font-family="Times,serif" font-size="14.00">var.validate_certs</text>
</g>
<!-- [root] provider[&quot;registry.terraform.io/netapp/netapp&#45;ontap&quot;]&#45;&gt;[root] var.validate_certs -->
<g id="edge7" class="edge">
<title>[root] provider[&quot;registry.terraform.io/netapp/netapp&#45;ontap&quot;]&#45;&gt;[root] var.validate_certs</title>
<path fill="none" stroke="black" d="M333.98,-73.29C349.43,-64.13 369.21,-52.39 386.42,-42.18"/>
<polygon fill="black" stroke="black" points="388.09,-45.26 394.91,-37.15 384.52,-39.24 388.09,-45.26"/>
</g>
<!-- [root] provider[&quot;registry.terraform.io/netapp/netapp&#45;ontap&quot;] (close) -->
<g id="node7" class="node">
<title>[root] provider[&quot;registry.terraform.io/netapp/netapp&#45;ontap&quot;] (close)</title>
<ellipse fill="none" stroke="black" cx="307.5" cy="-234" rx="260.68" ry="18"/>
<text text-anchor="middle" x="307.5" y="-228.95" font-family="Times,serif" font-size="14.00">[root] provider[&quot;registry.terraform.io/netapp/netapp&#45;ontap&quot;] (close)</text>
</g>
<!-- [root] provider[&quot;registry.terraform.io/netapp/netapp&#45;ontap&quot;] (close)&#45;&gt;[root] netapp&#45;ontap_volume_resource.volume1 (expand) -->
<g id="edge3" class="edge">
<title>[root] provider[&quot;registry.terraform.io/netapp/netapp&#45;ontap&quot;] (close)&#45;&gt;[root] netapp&#45;ontap_volume_resource.volume1 (expand)</title>
<path fill="none" stroke="black" d="M266.89,-215.88C244.75,-206.54 217.11,-194.88 193.42,-184.89"/>
<polygon fill="black" stroke="black" points="194.81,-181.68 184.24,-181.02 192.09,-188.13 194.81,-181.68"/>
</g>
<!-- [root] provider[&quot;registry.terraform.io/netapp/netapp&#45;ontap&quot;] (close)&#45;&gt;[root] netapp&#45;ontap_volume_snapshot_resource.snapshot1 (expand) -->
<g id="edge4" class="edge">
<title>[root] provider[&quot;registry.terraform.io/netapp/netapp&#45;ontap&quot;] (close)&#45;&gt;[root] netapp&#45;ontap_volume_snapshot_resource.snapshot1 (expand)</title>
<path fill="none" stroke="black" d="M348.11,-215.88C370.25,-206.54 397.89,-194.88 421.58,-184.89"/>
<polygon fill="black" stroke="black" points="422.91,-188.13 430.76,-181.02 420.19,-181.68 422.91,-188.13"/>
</g>
<!-- [root] root -->
<g id="node8" class="node">
<title>[root] root</title>
<ellipse fill="none" stroke="black" cx="307.5" cy="-306" rx="49.3" ry="18"/>
<text text-anchor="middle" x="307.5" y="-300.95" font-family="Times,serif" font-size="14.00">[root] root</text>
</g>
<!-- [root] root&#45;&gt;[root] provider[&quot;registry.terraform.io/netapp/netapp&#45;ontap&quot;] (close) -->
<g id="edge8" class="edge">
<title>[root] root&#45;&gt;[root] provider[&quot;registry.terraform.io/netapp/netapp&#45;ontap&quot;] (close)</title>
<path fill="none" stroke="black" d="M307.5,-287.7C307.5,-280.41 307.5,-271.73 307.5,-263.54"/>
<polygon fill="black" stroke="black" points="311,-263.62 307.5,-253.62 304,-263.62 311,-263.62"/>
</g>
</g>
</svg>
