<?xml version="1.0" encoding="UTF-8" standalone="no"?>
<!DOCTYPE svg PUBLIC "-//W3C//DTD SVG 1.1//EN"
 "http://www.w3.org/Graphics/SVG/1.1/DTD/svg11.dtd">
<!-- Generated by graphviz version 9.0.0 (20230911.1827)
 -->
<!-- Pages: 1 -->
<svg width="601pt" height="404pt"
 viewBox="0.00 0.00 600.56 404.00" xmlns="http://www.w3.org/2000/svg" xmlns:xlink="http://www.w3.org/1999/xlink">
<g id="graph0" class="graph" transform="scale(1 1) rotate(0) translate(4 400)">
<polygon fill="white" stroke="none" points="-4,4 -4,-400 596.56,-400 596.56,4 -4,4"/>
<!-- [root] netapp&#45;ontap_volume_resource.volume1 (expand) -->
<g id="node1" class="node">
<title>[root] netapp&#45;ontap_volume_resource.volume1 (expand)</title>
<polygon fill="none" stroke="black" points="438.53,-180 154.03,-180 154.03,-144 438.53,-144 438.53,-180"/>
<text text-anchor="middle" x="296.28" y="-156.95" font-family="Times,serif" font-size="14.00">netapp&#45;ontap_volume_resource.volume1</text>
</g>
<!-- [root] provider[&quot;registry.terraform.io/netapp/netapp&#45;ontap&quot;] -->
<g id="node3" class="node">
<title>[root] provider[&quot;registry.terraform.io/netapp/netapp&#45;ontap&quot;]</title>
<polygon fill="none" stroke="black" points="296.28,-108 0,-90 296.28,-72 592.56,-90 296.28,-108"/>
<text text-anchor="middle" x="296.28" y="-84.95" font-family="Times,serif" font-size="14.00">provider[&quot;registry.terraform.io/netapp/netapp&#45;ontap&quot;]</text>
</g>
<!-- [root] netapp&#45;ontap_volume_resource.volume1 (expand)&#45;&gt;[root] provider[&quot;registry.terraform.io/netapp/netapp&#45;ontap&quot;] -->
<g id="edge1" class="edge">
<title>[root] netapp&#45;ontap_volume_resource.volume1 (expand)&#45;&gt;[root] provider[&quot;registry.terraform.io/netapp/netapp&#45;ontap&quot;]</title>
<path fill="none" stroke="black" d="M296.28,-143.7C296.28,-136.41 296.28,-127.73 296.28,-119.54"/>
<polygon fill="black" stroke="black" points="299.78,-119.62 296.28,-109.62 292.78,-119.62 299.78,-119.62"/>
</g>
<!-- [root] netapp&#45;ontap_volume_snapshot_resource.snapshot1 (expand) -->
<g id="node2" class="node">
<title>[root] netapp&#45;ontap_volume_snapshot_resource.snapshot1 (expand)</title>
<polygon fill="none" stroke="black" points="468.53,-252 124.03,-252 124.03,-216 468.53,-216 468.53,-252"/>
<text text-anchor="middle" x="296.28" y="-228.95" font-family="Times,serif" font-size="14.00">netapp&#45;ontap_volume_snapshot_resource.snapshot1</text>
</g>
<!-- [root] netapp&#45;ontap_volume_snapshot_resource.snapshot1 (expand)&#45;&gt;[root] netapp&#45;ontap_volume_resource.volume1 (expand) -->
<g id="edge2" class="edge">
<title>[root] netapp&#45;ontap_volume_snapshot_resource.snapshot1 (expand)&#45;&gt;[root] netapp&#45;ontap_volume_resource.volume1 (expand)</title>
<path fill="none" stroke="black" d="M296.28,-215.7C296.28,-208.41 296.28,-199.73 296.28,-191.54"/>
<polygon fill="black" stroke="black" points="299.78,-191.62 296.28,-181.62 292.78,-191.62 299.78,-191.62"/>
</g>
<!-- [root] var.password -->
<g id="node4" class="node">
<title>[root] var.password</title>
<polygon fill="none" stroke="black" points="227.9,-36 146.65,-36 146.65,0 233.9,0 233.9,-30 227.9,-36"/>
<polyline fill="none" stroke="black" points="227.9,-36 227.9,-30"/>
<polyline fill="none" stroke="black" points="233.9,-30 227.9,-30"/>
<text text-anchor="middle" x="190.28" y="-12.95" font-family="Times,serif" font-size="14.00">var.password</text>
</g>
<!-- [root] provider[&quot;registry.terraform.io/netapp/netapp&#45;ontap&quot;]&#45;&gt;[root] var.password -->
<g id="edge4" class="edge">
<title>[root] provider[&quot;registry.terraform.io/netapp/netapp&#45;ontap&quot;]&#45;&gt;[root] var.password</title>
<path fill="none" stroke="black" d="M272.22,-73.12C258.47,-64.03 240.95,-52.46 225.65,-42.36"/>
<polygon fill="black" stroke="black" points="228,-39.72 217.73,-37.13 224.14,-45.56 228,-39.72"/>
</g>
<!-- [root] var.username -->
<g id="node5" class="node">
<title>[root] var.username</title>
<polygon fill="none" stroke="black" points="334.65,-36 251.9,-36 251.9,0 340.65,0 340.65,-30 334.65,-36"/>
<polyline fill="none" stroke="black" points="334.65,-36 334.65,-30"/>
<polyline fill="none" stroke="black" points="340.65,-30 334.65,-30"/>
<text text-anchor="middle" x="296.28" y="-12.95" font-family="Times,serif" font-size="14.00">var.username</text>
</g>
<!-- [root] provider[&quot;registry.terraform.io/netapp/netapp&#45;ontap&quot;]&#45;&gt;[root] var.username -->
<g id="edge5" class="edge">
<title>[root] provider[&quot;registry.terraform.io/netapp/netapp&#45;ontap&quot;]&#45;&gt;[root] var.username</title>
<path fill="none" stroke="black" d="M296.28,-71.7C296.28,-64.41 296.28,-55.73 296.28,-47.54"/>
<polygon fill="black" stroke="black" points="299.78,-47.62 296.28,-37.62 292.78,-47.62 299.78,-47.62"/>
</g>
<!-- [root] var.validate_certs -->
<g id="node6" class="node">
<title>[root] var.validate_certs</title>
<polygon fill="none" stroke="black" points="463.9,-36 358.65,-36 358.65,0 469.9,0 469.9,-30 463.9,-36"/>
<polyline fill="none" stroke="black" points="463.9,-36 463.9,-30"/>
<polyline fill="none" stroke="black" points="469.9,-30 463.9,-30"/>
<text text-anchor="middle" x="414.28" y="-12.95" font-family="Times,serif" font-size="14.00">var.validate_certs</text>
</g>
<!-- [root] provider[&quot;registry.terraform.io/netapp/netapp&#45;ontap&quot;]&#45;&gt;[root] var.validate_certs -->
<g id="edge6" class="edge">
<title>[root] provider[&quot;registry.terraform.io/netapp/netapp&#45;ontap&quot;]&#45;&gt;[root] var.validate_certs</title>
<path fill="none" stroke="black" d="M322.76,-73.29C338.21,-64.13 357.99,-52.39 375.2,-42.18"/>
<polygon fill="black" stroke="black" points="376.87,-45.26 383.68,-37.15 373.3,-39.24 376.87,-45.26"/>
</g>
<!-- [root] provider[&quot;registry.terraform.io/netapp/netapp&#45;ontap&quot;] (close) -->
<g id="node7" class="node">
<title>[root] provider[&quot;registry.terraform.io/netapp/netapp&#45;ontap&quot;] (close)</title>
<ellipse fill="none" stroke="black" cx="296.28" cy="-306" rx="260.68" ry="18"/>
<text text-anchor="middle" x="296.28" y="-300.95" font-family="Times,serif" font-size="14.00">[root] provider[&quot;registry.terraform.io/netapp/netapp&#45;ontap&quot;] (close)</text>
</g>
<!-- [root] provider[&quot;registry.terraform.io/netapp/netapp&#45;ontap&quot;] (close)&#45;&gt;[root] netapp&#45;ontap_volume_snapshot_resource.snapshot1 (expand) -->
<g id="edge3" class="edge">
<title>[root] provider[&quot;registry.terraform.io/netapp/netapp&#45;ontap&quot;] (close)&#45;&gt;[root] netapp&#45;ontap_volume_snapshot_resource.snapshot1 (expand)</title>
<path fill="none" stroke="black" d="M296.28,-287.7C296.28,-280.41 296.28,-271.73 296.28,-263.54"/>
<polygon fill="black" stroke="black" points="299.78,-263.62 296.28,-253.62 292.78,-263.62 299.78,-263.62"/>
</g>
<!-- [root] root -->
<g id="node8" class="node">
<title>[root] root</title>
<ellipse fill="none" stroke="black" cx="296.28" cy="-378" rx="49.3" ry="18"/>
<text text-anchor="middle" x="296.28" y="-372.95" font-family="Times,serif" font-size="14.00">[root] root</text>
</g>
<!-- [root] root&#45;&gt;[root] provider[&quot;registry.terraform.io/netapp/netapp&#45;ontap&quot;] (close) -->
<g id="edge7" class="edge">
<title>[root] root&#45;&gt;[root] provider[&quot;registry.terraform.io/netapp/netapp&#45;ontap&quot;] (close)</title>
<path fill="none" stroke="black" d="M296.28,-359.7C296.28,-352.41 296.28,-343.73 296.28,-335.54"/>
<polygon fill="black" stroke="black" points="299.78,-335.62 296.28,-325.62 292.78,-335.62 299.78,-335.62"/>
</g>
</g>
</svg>
